<!DOCTYPE svg PUBLIC "-//W3C//DTD SVG 1.1//EN" "http://www.w3.org/Graphics/SVG/1.1/DTD/svg11.dtd">
<!-- Uploaded to: SVG Repo, www.svgrepo.com, Transformed by: SVG Repo Mixer Tools -->
<svg width="256px" height="256px" viewBox="-296.96 -296.96 1617.92 1617.92" class="icon" version="1.1" xmlns="http://www.w3.org/2000/svg" fill="#000000" transform="matrix(-1, 0, 0, -1, 0, 0)rotate(180)" stroke="#000000" stroke-width="0.01024">
<g id="SVGRepo_bgCarrier" stroke-width="0">
<path transform="translate(-296.96, -296.96), scale(50.56)" d="M16,26.941713760141283C18.025013708904805,26.938331529027238,20.172072805270826,27.276116565639537,21.934679622994736,26.27916663367059C23.701274421192455,25.279961055790103,24.418652160550934,23.196315828695262,25.573126722924265,21.527047290466726C26.83202123618988,19.706796699909958,29.117774921617343,18.211934854239388,29.043803247623146,16C28.969503892617595,13.778266678172292,26.30110577835664,12.619375167114672,25.210457293244218,10.682340002385903C24.10367555049376,8.716651529287773,24.57599396535345,5.6570221774561205,22.603681769454855,4.5620876582878545C20.623141902360747,3.46258552491375,18.229389018717264,5.167547891204904,16,5.569129401817918C14.170748147334733,5.8986339055709855,12.391036329803812,6.092314748806112,10.640474289655689,6.717029165211967C8.576695483110212,7.453519699767791,6.261635897324078,7.890768167143541,4.834618376542458,9.55366391409188C3.3331927017947263,11.303267077709322,2.3258910731161864,13.720960678550803,2.6742731309495866,15.999999999999998C3.017787556422929,18.24719633383978,5.321529404635618,19.552867474189277,6.645607761599017,21.400760876946144C7.824241171939715,23.04567025242475,8.312793923100305,25.26771022589068,10.053863639710466,26.29901028475414C11.798853908802183,27.332632632016754,13.971859294540565,26.945101214047153,16,26.941713760141283" fill="#f7f8f8" strokewidth="0"/>
</g>
<g id="SVGRepo_tracerCarrier" stroke-linecap="round" stroke-linejoin="round"/>
<g id="SVGRepo_iconCarrier">
<path d="M861.9 383.8H218.1c-36.4 0-66.1-29.8-66.1-66.1V288c0-36.4 29.8-66.1 66.1-66.1h643.8c36.4 0 66.1 29.8 66.1 66.1v29.7c0 36.3-29.8 66.1-66.1 66.1z" fill="#f8f7f7"/>
<path d="M822.9 129.2H199.8c-77.2 0-140.4 63.2-140.4 140.4v487.2c0 77.2 63.2 140.4 140.4 140.4h623.1c77.2 0 140.4-63.2 140.4-140.4V269.6c0-77.2-63.2-140.4-140.4-140.4z m80.4 177H760.4L864.6 201c5.4 3.3 10.4 7.3 15 11.8 15.3 15.3 23.7 35.4 23.7 56.8v36.6z m-673.3 0l104-117h61.3l-109.1 117H230z m247.4-117h169.2L532 306.2H368.3l109.1-117z m248.8 0h65.6L676 306.2h-60l112.5-114.8-2.3-2.2zM143 212.9c15.3-15.3 35.4-23.7 56.8-23.7h53.9l-104 117h-30.4v-36.5c0.1-21.4 8.5-41.5 23.7-56.8z m736.6 600.7c-15.3 15.3-35.4 23.7-56.8 23.7h-623c-21.3 0-41.5-8.4-56.8-23.7-15.3-15.3-23.7-35.4-23.7-56.8V366.2h783.9v390.6c0.1 21.3-8.3 41.5-23.6 56.8z" fill="#45484C"/>
<path d="M400.5 770.6V430.9L534.1 508c14.3 8.3 19.3 26.6 11 41-8.3 14.3-26.6 19.3-41 11l-43.6-25.2v131.8l114.1-65.9-7.5-4.3c-14.3-8.3-19.3-26.6-11-41 8.3-14.3 26.6-19.3 41-11l97.5 56.3-294.1 169.9z" fill="#27b989"/>
</g>
</svg>